<mxfile host="app.diagrams.net" modified="2024-01-01T16:05:20.195Z" agent="Mozilla/5.0 (Windows NT 10.0; Win64; x64) AppleWebKit/537.36 (KHTML, like Gecko) Chrome/120.0.0.0 Safari/537.36 Edg/120.0.0.0" etag="8EOEXjfyR7OLY0GzoEpl" version="22.1.16" type="github">
  <diagram id="C5RBs43oDa-KdzZeNtuy" name="Page-1">
    <mxGraphModel dx="471" dy="541" grid="1" gridSize="10" guides="1" tooltips="1" connect="1" arrows="1" fold="1" page="1" pageScale="1" pageWidth="827" pageHeight="1169" math="0" shadow="0">
      <root>
        <mxCell id="WIyWlLk6GJQsqaUBKTNV-0" />
        <mxCell id="WIyWlLk6GJQsqaUBKTNV-1" parent="WIyWlLk6GJQsqaUBKTNV-0" />
        <mxCell id="zHf5VcXNNW5jCS87dQHY-52" style="edgeStyle=orthogonalEdgeStyle;rounded=0;orthogonalLoop=1;jettySize=auto;html=1;exitX=0.5;exitY=1;exitDx=0;exitDy=0;entryX=0.5;entryY=0;entryDx=0;entryDy=0;elbow=vertical;" edge="1" parent="WIyWlLk6GJQsqaUBKTNV-1" source="WIyWlLk6GJQsqaUBKTNV-3" target="zHf5VcXNNW5jCS87dQHY-47">
          <mxGeometry relative="1" as="geometry" />
        </mxCell>
        <mxCell id="WIyWlLk6GJQsqaUBKTNV-3" value="Wait for a set of new colour and depth fames" style="rounded=1;whiteSpace=wrap;html=1;fontSize=12;glass=0;strokeWidth=1;shadow=0;" parent="WIyWlLk6GJQsqaUBKTNV-1" vertex="1">
          <mxGeometry x="167.5" y="100" width="150" height="40" as="geometry" />
        </mxCell>
        <mxCell id="zHf5VcXNNW5jCS87dQHY-15" style="edgeStyle=orthogonalEdgeStyle;rounded=0;orthogonalLoop=1;jettySize=auto;html=1;exitX=0.5;exitY=1;exitDx=0;exitDy=0;entryX=0.5;entryY=0;entryDx=0;entryDy=0;elbow=vertical;" edge="1" parent="WIyWlLk6GJQsqaUBKTNV-1" source="zHf5VcXNNW5jCS87dQHY-0" target="zHf5VcXNNW5jCS87dQHY-2">
          <mxGeometry relative="1" as="geometry" />
        </mxCell>
        <mxCell id="zHf5VcXNNW5jCS87dQHY-0" value="Extract color and depth tensors from the frames" style="rounded=1;whiteSpace=wrap;html=1;" vertex="1" parent="WIyWlLk6GJQsqaUBKTNV-1">
          <mxGeometry x="182.5" y="280" width="120" height="60" as="geometry" />
        </mxCell>
        <mxCell id="zHf5VcXNNW5jCS87dQHY-26" style="edgeStyle=orthogonalEdgeStyle;rounded=0;orthogonalLoop=1;jettySize=auto;html=1;exitX=0.5;exitY=1;exitDx=0;exitDy=0;entryX=0.5;entryY=0;entryDx=0;entryDy=0;elbow=vertical;" edge="1" parent="WIyWlLk6GJQsqaUBKTNV-1" source="zHf5VcXNNW5jCS87dQHY-2" target="zHf5VcXNNW5jCS87dQHY-25">
          <mxGeometry relative="1" as="geometry" />
        </mxCell>
        <mxCell id="zHf5VcXNNW5jCS87dQHY-2" value="Input the color image tensor to the model and save the results" style="rounded=1;whiteSpace=wrap;html=1;" vertex="1" parent="WIyWlLk6GJQsqaUBKTNV-1">
          <mxGeometry x="182.5" y="370" width="120" height="60" as="geometry" />
        </mxCell>
        <mxCell id="zHf5VcXNNW5jCS87dQHY-30" value="" style="edgeStyle=orthogonalEdgeStyle;rounded=0;orthogonalLoop=1;jettySize=auto;html=1;elbow=vertical;" edge="1" parent="WIyWlLk6GJQsqaUBKTNV-1" source="zHf5VcXNNW5jCS87dQHY-3" target="zHf5VcXNNW5jCS87dQHY-29">
          <mxGeometry relative="1" as="geometry" />
        </mxCell>
        <mxCell id="zHf5VcXNNW5jCS87dQHY-3" value="Create a tuple array of masks and their perspective boxes" style="rounded=1;whiteSpace=wrap;html=1;" vertex="1" parent="WIyWlLk6GJQsqaUBKTNV-1">
          <mxGeometry x="370" y="555" width="120" height="60" as="geometry" />
        </mxCell>
        <mxCell id="zHf5VcXNNW5jCS87dQHY-43" style="edgeStyle=orthogonalEdgeStyle;rounded=0;orthogonalLoop=1;jettySize=auto;html=1;exitX=0.5;exitY=1;exitDx=0;exitDy=0;entryX=0.5;entryY=0;entryDx=0;entryDy=0;elbow=vertical;" edge="1" parent="WIyWlLk6GJQsqaUBKTNV-1" source="zHf5VcXNNW5jCS87dQHY-25" target="zHf5VcXNNW5jCS87dQHY-41">
          <mxGeometry relative="1" as="geometry" />
        </mxCell>
        <mxCell id="zHf5VcXNNW5jCS87dQHY-25" value="Process The result and extract masks, boxes and probabilities" style="rounded=1;whiteSpace=wrap;html=1;" vertex="1" parent="WIyWlLk6GJQsqaUBKTNV-1">
          <mxGeometry x="178.75" y="460" width="127.5" height="60" as="geometry" />
        </mxCell>
        <mxCell id="zHf5VcXNNW5jCS87dQHY-32" value="" style="edgeStyle=orthogonalEdgeStyle;rounded=0;orthogonalLoop=1;jettySize=auto;html=1;elbow=vertical;" edge="1" parent="WIyWlLk6GJQsqaUBKTNV-1" source="zHf5VcXNNW5jCS87dQHY-29" target="zHf5VcXNNW5jCS87dQHY-31">
          <mxGeometry relative="1" as="geometry" />
        </mxCell>
        <mxCell id="zHf5VcXNNW5jCS87dQHY-29" value="From the mask-box list choose the first one" style="whiteSpace=wrap;html=1;rounded=1;" vertex="1" parent="WIyWlLk6GJQsqaUBKTNV-1">
          <mxGeometry x="370" y="460" width="120" height="60" as="geometry" />
        </mxCell>
        <mxCell id="zHf5VcXNNW5jCS87dQHY-34" value="" style="edgeStyle=orthogonalEdgeStyle;rounded=0;orthogonalLoop=1;jettySize=auto;html=1;elbow=vertical;" edge="1" parent="WIyWlLk6GJQsqaUBKTNV-1" source="zHf5VcXNNW5jCS87dQHY-31" target="zHf5VcXNNW5jCS87dQHY-33">
          <mxGeometry relative="1" as="geometry" />
        </mxCell>
        <mxCell id="zHf5VcXNNW5jCS87dQHY-31" value="Calculate the centroid of the mask" style="whiteSpace=wrap;html=1;rounded=1;" vertex="1" parent="WIyWlLk6GJQsqaUBKTNV-1">
          <mxGeometry x="370" y="370" width="120" height="60" as="geometry" />
        </mxCell>
        <mxCell id="zHf5VcXNNW5jCS87dQHY-36" value="" style="edgeStyle=orthogonalEdgeStyle;rounded=0;orthogonalLoop=1;jettySize=auto;html=1;elbow=vertical;" edge="1" parent="WIyWlLk6GJQsqaUBKTNV-1" source="zHf5VcXNNW5jCS87dQHY-33" target="zHf5VcXNNW5jCS87dQHY-35">
          <mxGeometry relative="1" as="geometry" />
        </mxCell>
        <mxCell id="zHf5VcXNNW5jCS87dQHY-33" value="Find the distance of the object represented by the mask from the depth tensor" style="whiteSpace=wrap;html=1;rounded=1;" vertex="1" parent="WIyWlLk6GJQsqaUBKTNV-1">
          <mxGeometry x="365" y="280" width="130" height="60" as="geometry" />
        </mxCell>
        <mxCell id="zHf5VcXNNW5jCS87dQHY-56" value="" style="edgeStyle=orthogonalEdgeStyle;rounded=0;orthogonalLoop=1;jettySize=auto;html=1;elbow=vertical;" edge="1" parent="WIyWlLk6GJQsqaUBKTNV-1" source="zHf5VcXNNW5jCS87dQHY-35" target="zHf5VcXNNW5jCS87dQHY-55">
          <mxGeometry relative="1" as="geometry" />
        </mxCell>
        <mxCell id="zHf5VcXNNW5jCS87dQHY-35" value="Plot the box and overlay the mask on the color image and remove the mask-box pair from the list" style="whiteSpace=wrap;html=1;rounded=1;" vertex="1" parent="WIyWlLk6GJQsqaUBKTNV-1">
          <mxGeometry x="355" y="186.25" width="150" height="60" as="geometry" />
        </mxCell>
        <mxCell id="zHf5VcXNNW5jCS87dQHY-44" value="Yes" style="edgeStyle=orthogonalEdgeStyle;rounded=0;orthogonalLoop=1;jettySize=auto;html=1;exitX=1;exitY=0.5;exitDx=0;exitDy=0;entryX=0;entryY=0.5;entryDx=0;entryDy=0;elbow=vertical;" edge="1" parent="WIyWlLk6GJQsqaUBKTNV-1" source="zHf5VcXNNW5jCS87dQHY-41" target="zHf5VcXNNW5jCS87dQHY-3">
          <mxGeometry x="-0.2632" y="15" relative="1" as="geometry">
            <mxPoint as="offset" />
          </mxGeometry>
        </mxCell>
        <mxCell id="zHf5VcXNNW5jCS87dQHY-46" value="No" style="edgeStyle=orthogonalEdgeStyle;rounded=0;orthogonalLoop=1;jettySize=auto;html=1;exitX=0;exitY=0.5;exitDx=0;exitDy=0;entryX=0;entryY=0.5;entryDx=0;entryDy=0;elbow=vertical;" edge="1" parent="WIyWlLk6GJQsqaUBKTNV-1" source="zHf5VcXNNW5jCS87dQHY-41" target="WIyWlLk6GJQsqaUBKTNV-3">
          <mxGeometry x="-0.9244" y="-15" relative="1" as="geometry">
            <Array as="points">
              <mxPoint x="100" y="585" />
              <mxPoint x="100" y="120" />
            </Array>
            <mxPoint as="offset" />
          </mxGeometry>
        </mxCell>
        <mxCell id="zHf5VcXNNW5jCS87dQHY-41" value="The output contains predictions" style="rhombus;whiteSpace=wrap;html=1;rounded=1;" vertex="1" parent="WIyWlLk6GJQsqaUBKTNV-1">
          <mxGeometry x="162.5" y="545" width="160" height="80" as="geometry" />
        </mxCell>
        <mxCell id="zHf5VcXNNW5jCS87dQHY-53" value="Yes" style="edgeStyle=orthogonalEdgeStyle;rounded=0;orthogonalLoop=1;jettySize=auto;html=1;exitX=0.5;exitY=1;exitDx=0;exitDy=0;entryX=0.5;entryY=0;entryDx=0;entryDy=0;elbow=vertical;" edge="1" parent="WIyWlLk6GJQsqaUBKTNV-1" source="zHf5VcXNNW5jCS87dQHY-47" target="zHf5VcXNNW5jCS87dQHY-0">
          <mxGeometry x="-0.3333" y="18" relative="1" as="geometry">
            <mxPoint as="offset" />
          </mxGeometry>
        </mxCell>
        <mxCell id="zHf5VcXNNW5jCS87dQHY-54" value="No" style="edgeStyle=orthogonalEdgeStyle;rounded=0;orthogonalLoop=1;jettySize=auto;html=1;exitX=0;exitY=0.5;exitDx=0;exitDy=0;entryX=0;entryY=0.5;entryDx=0;entryDy=0;elbow=vertical;" edge="1" parent="WIyWlLk6GJQsqaUBKTNV-1" source="zHf5VcXNNW5jCS87dQHY-47" target="WIyWlLk6GJQsqaUBKTNV-3">
          <mxGeometry x="-0.8316" y="-10" relative="1" as="geometry">
            <Array as="points">
              <mxPoint x="100" y="210" />
              <mxPoint x="100" y="120" />
            </Array>
            <mxPoint as="offset" />
          </mxGeometry>
        </mxCell>
        <mxCell id="zHf5VcXNNW5jCS87dQHY-47" value="Both frames are available" style="rhombus;whiteSpace=wrap;html=1;rounded=1;" vertex="1" parent="WIyWlLk6GJQsqaUBKTNV-1">
          <mxGeometry x="180" y="170" width="125" height="80" as="geometry" />
        </mxCell>
        <mxCell id="zHf5VcXNNW5jCS87dQHY-58" value="Yes" style="edgeStyle=orthogonalEdgeStyle;rounded=0;orthogonalLoop=1;jettySize=auto;html=1;elbow=vertical;" edge="1" parent="WIyWlLk6GJQsqaUBKTNV-1" source="zHf5VcXNNW5jCS87dQHY-55" target="zHf5VcXNNW5jCS87dQHY-57">
          <mxGeometry x="0.2713" y="20" relative="1" as="geometry">
            <mxPoint x="40" as="offset" />
          </mxGeometry>
        </mxCell>
        <mxCell id="zHf5VcXNNW5jCS87dQHY-60" value="No" style="edgeStyle=orthogonalEdgeStyle;rounded=0;orthogonalLoop=1;jettySize=auto;html=1;exitX=1;exitY=0.5;exitDx=0;exitDy=0;entryX=1;entryY=0.5;entryDx=0;entryDy=0;elbow=vertical;" edge="1" parent="WIyWlLk6GJQsqaUBKTNV-1" source="zHf5VcXNNW5jCS87dQHY-55" target="zHf5VcXNNW5jCS87dQHY-29">
          <mxGeometry x="-0.9252" y="20" relative="1" as="geometry">
            <Array as="points">
              <mxPoint x="550" y="120" />
              <mxPoint x="550" y="490" />
            </Array>
            <mxPoint as="offset" />
          </mxGeometry>
        </mxCell>
        <mxCell id="zHf5VcXNNW5jCS87dQHY-55" value="The mask-box list is empty" style="rhombus;whiteSpace=wrap;html=1;rounded=1;" vertex="1" parent="WIyWlLk6GJQsqaUBKTNV-1">
          <mxGeometry x="347.5" y="85" width="165" height="70" as="geometry" />
        </mxCell>
        <mxCell id="zHf5VcXNNW5jCS87dQHY-59" style="edgeStyle=orthogonalEdgeStyle;rounded=0;orthogonalLoop=1;jettySize=auto;html=1;exitX=0;exitY=0.5;exitDx=0;exitDy=0;entryX=0.5;entryY=0;entryDx=0;entryDy=0;elbow=vertical;" edge="1" parent="WIyWlLk6GJQsqaUBKTNV-1" source="zHf5VcXNNW5jCS87dQHY-57" target="WIyWlLk6GJQsqaUBKTNV-3">
          <mxGeometry relative="1" as="geometry" />
        </mxCell>
        <mxCell id="zHf5VcXNNW5jCS87dQHY-57" value="Output the overlayed image to the user" style="whiteSpace=wrap;html=1;rounded=1;" vertex="1" parent="WIyWlLk6GJQsqaUBKTNV-1">
          <mxGeometry x="370" width="120" height="60" as="geometry" />
        </mxCell>
      </root>
    </mxGraphModel>
  </diagram>
</mxfile>
